<?xml version="1.0" encoding="UTF-8" standalone="no"?><svg xmlns="http://www.w3.org/2000/svg" xmlns:xlink="http://www.w3.org/1999/xlink" contentStyleType="text/css" height="472px" preserveAspectRatio="none" style="width:563px;height:472px;background:#FFFFFF;" version="1.1" viewBox="0 0 563 472" width="563px" zoomAndPan="magnify"><defs/><g><rect fill="#F1F1F1" height="36.2969" rx="12.5" ry="12.5" style="stroke:#181818;stroke-width:1.5;" width="48" x="10" y="217.0391"/><text fill="#000000" font-family="sans-serif" font-size="14" lengthAdjust="spacing" textLength="28" x="20" y="240.0342">方案</text><rect fill="#F1F1F1" height="36.2969" rx="12.5" ry="12.5" style="stroke:#181818;stroke-width:1.5;" width="76" x="108" y="20"/><text fill="#000000" font-family="sans-serif" font-size="14" lengthAdjust="spacing" textLength="56" x="118" y="42.9951">设定计划</text><path d="M58,235.1875 L68,235.1875 C83,235.1875 83,38.1484 98,38.1484 L108,38.1484 " fill="none" style="stroke:#181818;stroke-width:1.0;"/><rect fill="#F1F1F1" height="36.2969" rx="12.5" ry="12.5" style="stroke:#181818;stroke-width:1.5;" width="76" x="108" y="76.2969"/><text fill="#000000" font-family="sans-serif" font-size="14" lengthAdjust="spacing" textLength="56" x="118" y="99.292">排优先级</text><rect fill="#F1F1F1" height="36.2969" rx="12.5" ry="12.5" style="stroke:#181818;stroke-width:1.5;" width="113" x="234" y="48.1484"/><text fill="#000000" font-family="sans-serif" font-size="14" lengthAdjust="spacing" textLength="93" x="244" y="71.1436">重要紧急4象限</text><path d="M184,94.4453 L194,94.4453 C209,94.4453 209,66.2969 224,66.2969 L234,66.2969 " fill="none" style="stroke:#181818;stroke-width:1.0;"/><rect fill="#F1F1F1" height="36.2969" rx="12.5" ry="12.5" style="stroke:#181818;stroke-width:1.5;" width="290" x="234" y="104.4453"/><text fill="#000000" font-family="sans-serif" font-size="14" lengthAdjust="spacing" textLength="270" x="244" y="127.4404">帕累托法则，80/20法则(The 80/20 Rule)</text><path d="M184,94.4453 L194,94.4453 C209,94.4453 209,122.5938 224,122.5938 L234,122.5938 " fill="none" style="stroke:#181818;stroke-width:1.0;"/><path d="M58,235.1875 L68,235.1875 C83,235.1875 83,94.4453 98,94.4453 L108,94.4453 " fill="none" style="stroke:#181818;stroke-width:1.0;"/><rect fill="#F1F1F1" height="36.2969" rx="12.5" ry="12.5" style="stroke:#181818;stroke-width:1.5;" width="76" x="108" y="217.0391"/><text fill="#000000" font-family="sans-serif" font-size="14" lengthAdjust="spacing" textLength="56" x="118" y="240.0342">快速反馈</text><rect fill="#F1F1F1" height="36.2969" rx="12.5" ry="12.5" style="stroke:#181818;stroke-width:1.5;" width="155" x="234" y="160.7422"/><text fill="#000000" font-family="sans-serif" font-size="14" lengthAdjust="spacing" textLength="135" x="244" y="183.7373">Time Boxing, 时间盒</text><path d="M184,235.1875 L194,235.1875 C209,235.1875 209,178.8906 224,178.8906 L234,178.8906 " fill="none" style="stroke:#181818;stroke-width:1.0;"/><rect fill="#F1F1F1" height="36.2969" rx="12.5" ry="12.5" style="stroke:#181818;stroke-width:1.5;" width="76" x="234" y="217.0391"/><text fill="#000000" font-family="sans-serif" font-size="14" lengthAdjust="spacing" textLength="56" x="244" y="240.0342">增量交付</text><path d="M184,235.1875 L194,235.1875 C209,235.1875 209,235.1875 224,235.1875 L234,235.1875 " fill="none" style="stroke:#181818;stroke-width:1.0;"/><rect fill="#F1F1F1" height="36.2969" rx="12.5" ry="12.5" style="stroke:#181818;stroke-width:1.5;" width="76" x="234" y="273.3359"/><text fill="#000000" font-family="sans-serif" font-size="14" lengthAdjust="spacing" textLength="56" x="244" y="296.3311">响应变化</text><path d="M184,235.1875 L194,235.1875 C209,235.1875 209,291.4844 224,291.4844 L234,291.4844 " fill="none" style="stroke:#181818;stroke-width:1.0;"/><path d="M58,235.1875 L68,235.1875 C83,235.1875 83,235.1875 98,235.1875 L108,235.1875 " fill="none" style="stroke:#181818;stroke-width:1.0;"/><rect fill="#F1F1F1" height="36.2969" rx="12.5" ry="12.5" style="stroke:#181818;stroke-width:1.5;" width="48" x="108" y="357.7813"/><text fill="#000000" font-family="sans-serif" font-size="14" lengthAdjust="spacing" textLength="28" x="118" y="380.7764">执行</text><rect fill="#F1F1F1" height="36.2969" rx="12.5" ry="12.5" style="stroke:#181818;stroke-width:1.5;" width="48" x="206" y="329.6328"/><text fill="#000000" font-family="sans-serif" font-size="14" lengthAdjust="spacing" textLength="28" x="216" y="352.6279">效率</text><path d="M156,375.9297 L166,375.9297 C181,375.9297 181,347.7813 196,347.7813 L206,347.7813 " fill="none" style="stroke:#181818;stroke-width:1.0;"/><rect fill="#F1F1F1" height="36.2969" rx="12.5" ry="12.5" style="stroke:#181818;stroke-width:1.5;" width="48" x="206" y="385.9297"/><text fill="#000000" font-family="sans-serif" font-size="14" lengthAdjust="spacing" textLength="28" x="216" y="408.9248">质量</text><rect fill="#F1F1F1" height="36.2969" rx="12.5" ry="12.5" style="stroke:#181818;stroke-width:1.5;" width="247" x="304" y="385.9297"/><text fill="#000000" font-family="sans-serif" font-size="14" lengthAdjust="spacing" textLength="227" x="314" y="408.9248">​一次只做一件事（Single-Tasking）</text><path d="M254,404.0781 L264,404.0781 C279,404.0781 279,404.0781 294,404.0781 L304,404.0781 " fill="none" style="stroke:#181818;stroke-width:1.0;"/><path d="M156,375.9297 L166,375.9297 C181,375.9297 181,404.0781 196,404.0781 L206,404.0781 " fill="none" style="stroke:#181818;stroke-width:1.0;"/><path d="M58,235.1875 L68,235.1875 C83,235.1875 83,375.9297 98,375.9297 L108,375.9297 " fill="none" style="stroke:#181818;stroke-width:1.0;"/><rect fill="#F1F1F1" height="36.2969" rx="12.5" ry="12.5" style="stroke:#181818;stroke-width:1.5;" width="48" x="108" y="414.0781"/><text fill="#000000" font-family="sans-serif" font-size="14" lengthAdjust="spacing" textLength="28" x="118" y="437.0732">验收</text><path d="M58,235.1875 L68,235.1875 C83,235.1875 83,432.2266 98,432.2266 L108,432.2266 " fill="none" style="stroke:#181818;stroke-width:1.0;"/><!--SRC=[JP1HJnD14CVVzrFCOqiijYUGUay4K9FQHa8BxojToyNh7hdRQ_IjF9XUGqjDfL0mqPnHIe3K69i6IwFVnTpktJtrAxZIehTFix-P-VzdPjbYs6HbZHRBU1VDWJZw8Lm7WNnp4FH_ylvfq7UvqvuXST3snbt-nl57lLiqnM6j6Ppj-OEUg7vP2BwvuSdRI9PVT_p1Lr7lYkyTxfnCnerqyhwIdFvYXHq2jt_Oi7KIdndnNvTXzIDlDSCp9o9LqCe4LenN6YtT0t4y38y7_ljsrElJXx3MyaQVlPjk5Bzhyj4XRtLvu-XkbNelS1kH6j5n_8DQ10I3Swdr3qpXx-g-TrqLLovlNV2zKnbxDqDlj3yPEtavbKuI1MozbD5aN9yvXHSDSJX4oqHUUNPfjAvZoZPpMQWGqz8C2gbv9Qayc4_5yZQ53AQWF8IKeYwcrSKbs2oimjzq7CMUh6V1Ccnpcq1HivYfFRUPx8-Z3AvWUKBAv8bKUBPBQ6RjwHs0HxIYcGOj4yfGPYltls1f8R6YCSWJKqu2MpcqHbvWMsUoOzieoZrKwVuuaKPPJ4isBabjGj6g8NNDrofGMzV_0000]--></g></svg>