<?xml version="1.0" encoding="UTF-8" standalone="no"?><svg xmlns="http://www.w3.org/2000/svg" xmlns:xlink="http://www.w3.org/1999/xlink" contentStyleType="text/css" height="359px" preserveAspectRatio="none" style="width:784px;height:359px;background:#FFFFFF;" version="1.1" viewBox="0 0 784 359" width="784px" zoomAndPan="magnify"><defs/><g><rect fill="#F1F1F1" height="36.2969" rx="12.5" ry="12.5" style="stroke:#181818;stroke-width:1.5;" width="48" x="10" y="160.7422"/><text fill="#000000" font-family="sans-serif" font-size="14" lengthAdjust="spacing" textLength="28" x="20" y="183.7373">问题</text><rect fill="#F1F1F1" height="36.2969" rx="12.5" ry="12.5" style="stroke:#181818;stroke-width:1.5;" width="174" x="108" y="48.1484"/><text fill="#000000" font-family="sans-serif" font-size="14" lengthAdjust="spacing" textLength="154" x="118" y="71.1436">如何确保“事情能做成”？</text><rect fill="#F1F1F1" height="36.2969" rx="12.5" ry="12.5" style="stroke:#181818;stroke-width:1.5;" width="76" x="332" y="20"/><text fill="#000000" font-family="sans-serif" font-size="14" lengthAdjust="spacing" textLength="56" x="342" y="42.9951">设定计划</text><path d="M282,66.2969 L292,66.2969 C307,66.2969 307,38.1484 322,38.1484 L332,38.1484 " fill="none" style="stroke:#181818;stroke-width:1.0;"/><rect fill="#F1F1F1" height="36.2969" rx="12.5" ry="12.5" style="stroke:#181818;stroke-width:1.5;" width="48" x="332" y="76.2969"/><text fill="#000000" font-family="sans-serif" font-size="14" lengthAdjust="spacing" textLength="28" x="342" y="99.292">验收</text><path d="M282,66.2969 L292,66.2969 C307,66.2969 307,94.4453 322,94.4453 L332,94.4453 " fill="none" style="stroke:#181818;stroke-width:1.0;"/><path d="M58,178.8906 L68,178.8906 C83,178.8906 83,66.2969 98,66.2969 L108,66.2969 " fill="none" style="stroke:#181818;stroke-width:1.0;"/><rect fill="#F1F1F1" height="36.2969" rx="12.5" ry="12.5" style="stroke:#181818;stroke-width:1.5;" width="230" x="108" y="160.7422"/><text fill="#000000" font-family="sans-serif" font-size="14" lengthAdjust="spacing" textLength="210" x="118" y="183.7373">如何确保“做的事情能带来价值”？</text><rect fill="#F1F1F1" height="36.2969" rx="12.5" ry="12.5" style="stroke:#181818;stroke-width:1.5;" width="76" x="388" y="132.5938"/><text fill="#000000" font-family="sans-serif" font-size="14" lengthAdjust="spacing" textLength="56" x="398" y="155.5889">排优先级</text><path d="M338,178.8906 L348,178.8906 C363,178.8906 363,150.7422 378,150.7422 L388,150.7422 " fill="none" style="stroke:#181818;stroke-width:1.0;"/><rect fill="#F1F1F1" height="36.2969" rx="12.5" ry="12.5" style="stroke:#181818;stroke-width:1.5;" width="76" x="388" y="188.8906"/><text fill="#000000" font-family="sans-serif" font-size="14" lengthAdjust="spacing" textLength="56" x="398" y="211.8857">快速反馈</text><path d="M338,178.8906 L348,178.8906 C363,178.8906 363,207.0391 378,207.0391 L388,207.0391 " fill="none" style="stroke:#181818;stroke-width:1.0;"/><path d="M58,178.8906 L68,178.8906 C83,178.8906 83,178.8906 98,178.8906 L108,178.8906 " fill="none" style="stroke:#181818;stroke-width:1.0;"/><rect fill="#F1F1F1" height="36.2969" rx="12.5" ry="12.5" style="stroke:#181818;stroke-width:1.5;" width="188" x="108" y="273.3359"/><text fill="#000000" font-family="sans-serif" font-size="14" lengthAdjust="spacing" textLength="168" x="118" y="296.3311">如何确保“能把事情做漂亮”</text><rect fill="#F1F1F1" height="36.2969" rx="12.5" ry="12.5" style="stroke:#181818;stroke-width:1.5;" width="300" x="346" y="245.1875"/><text fill="#000000" font-family="sans-serif" font-size="14" lengthAdjust="spacing" textLength="119" x="356" y="268.1826">如何“花费尽可能少</text><text fill="#000000" font-family="sans-serif" font-size="14" font-weight="bold" lengthAdjust="spacing" textLength="28" x="475" y="268.1826">时间</text><text fill="#000000" font-family="sans-serif" font-size="14" lengthAdjust="spacing" textLength="14" x="503" y="268.1826">和</text><text fill="#000000" font-family="sans-serif" font-size="14" font-weight="bold" lengthAdjust="spacing" textLength="28" x="517" y="268.1826">成本</text><text fill="#000000" font-family="sans-serif" font-size="14" lengthAdjust="spacing" textLength="91" x="545" y="268.1826">，把事情做成”</text><rect fill="#F1F1F1" height="36.2969" rx="12.5" ry="12.5" style="stroke:#181818;stroke-width:1.5;" width="76" x="696" y="245.1875"/><text fill="#000000" font-family="sans-serif" font-size="14" lengthAdjust="spacing" textLength="56" x="706" y="268.1826">排优先级</text><path d="M646,263.3359 L656,263.3359 C671,263.3359 671,263.3359 686,263.3359 L696,263.3359 " fill="none" style="stroke:#181818;stroke-width:1.0;"/><path d="M296,291.4844 L306,291.4844 C321,291.4844 321,263.3359 336,263.3359 L346,263.3359 " fill="none" style="stroke:#181818;stroke-width:1.0;"/><rect fill="#F1F1F1" height="36.2969" rx="12.5" ry="12.5" style="stroke:#181818;stroke-width:1.5;" width="188" x="346" y="301.4844"/><text fill="#000000" font-family="sans-serif" font-size="14" lengthAdjust="spacing" textLength="119" x="356" y="324.4795">如何确保”事情做的</text><text fill="#000000" font-family="sans-serif" font-size="14" font-weight="bold" lengthAdjust="spacing" textLength="28" x="475" y="324.4795">质量</text><text fill="#000000" font-family="sans-serif" font-size="14" lengthAdjust="spacing" textLength="21" x="503" y="324.4795">高“</text><rect fill="#F1F1F1" height="36.2969" rx="12.5" ry="12.5" style="stroke:#181818;stroke-width:1.5;" width="48" x="584" y="301.4844"/><text fill="#000000" font-family="sans-serif" font-size="14" lengthAdjust="spacing" textLength="28" x="594" y="324.4795">验收</text><path d="M534,319.6328 L544,319.6328 C559,319.6328 559,319.6328 574,319.6328 L584,319.6328 " fill="none" style="stroke:#181818;stroke-width:1.0;"/><path d="M296,291.4844 L306,291.4844 C321,291.4844 321,319.6328 336,319.6328 L346,319.6328 " fill="none" style="stroke:#181818;stroke-width:1.0;"/><path d="M58,178.8906 L68,178.8906 C83,178.8906 83,291.4844 98,291.4844 L108,291.4844 " fill="none" style="stroke:#181818;stroke-width:1.0;"/><!--SRC=[VP5TInj158RlvrUSIpEWcBIAxfNuqKAQK36Q-z6COI6PbSrie7Vn2vSOZGOb8HX4mRIeh1Q2RTDD_I-oizczyYyuYL-nYdCtvxpdUL_E6SjmelEqoX9fieGm-6NBFwuWa0-3gAyuhVtsaULSrsvo1qvpqrrTzrPROhdgcZitkTgjVTYLtiizwv-mgfvr9CnIJza_BRXxLsyZ9QbTNNi6_wwxjHFdxo-Hir_XtUsIOrV4kjbkVkyfY-ipFtSeYbj-tNpRH8BTVFxUf1FTNd6QbiJtGheJ7Mt-fzVu8ovRedZH2NIvYx5RllBB3On5gI0_vevxS8xnhLru0UtkuuduVk8NyMfF3Ba9ZBt63t-ZYB5_Lf5n_WC-h7ACodCzd0nDfmZZSz48PAcUKJK6mO7GOEZ3GB0lPZ084mQXKGY6bA4HPMWOvcOdeDCEeBxFqn78Q8Q-G26XPhYkpXjSpWTGc6G9p1YCgscgmDSboiAJNnuBCCMoggwnD6KSXUFHPy7mn_vnbKECwZ89nADeaYuI8yNbn8AMK5bIaUwV-aTGXB2aGPAIJHcQq2HN_wO0CrAfEm00]--></g></svg>