<?xml version="1.0" encoding="UTF-8" standalone="no"?><svg xmlns="http://www.w3.org/2000/svg" xmlns:xlink="http://www.w3.org/1999/xlink" contentStyleType="text/css" height="472px" preserveAspectRatio="none" style="width:742px;height:472px;background:#FFFFFF;" version="1.1" viewBox="0 0 742 472" width="742px" zoomAndPan="magnify"><defs/><g><rect fill="#F1F1F1" height="36.2969" rx="12.5" ry="12.5" style="stroke:#181818;stroke-width:1.5;" width="48" x="10" y="217.0391"/><text fill="#000000" font-family="sans-serif" font-size="14" lengthAdjust="spacing" textLength="28" x="20" y="240.0342">敏捷</text><rect fill="#F1F1F1" height="36.2969" rx="12.5" ry="12.5" style="stroke:#181818;stroke-width:1.5;" width="76" x="108" y="132.5938"/><text fill="#000000" font-family="sans-serif" font-size="14" lengthAdjust="spacing" textLength="56" x="118" y="155.5889">反馈管理</text><rect fill="#F1F1F1" height="36.2969" rx="12.5" ry="12.5" style="stroke:#181818;stroke-width:1.5;" width="202" x="234" y="20"/><text fill="#000000" font-family="sans-serif" font-size="14" lengthAdjust="spacing" textLength="182" x="244" y="42.9951">按照价值导向设定任务优先级</text><path d="M184,150.7422 L194,150.7422 C209,150.7422 209,38.1484 224,38.1484 L234,38.1484 " fill="none" style="stroke:#181818;stroke-width:1.0;"/><rect fill="#F1F1F1" height="36.2969" rx="12.5" ry="12.5" style="stroke:#181818;stroke-width:1.5;" width="160" x="234" y="132.5938"/><text fill="#000000" font-family="sans-serif" font-size="14" lengthAdjust="spacing" textLength="140" x="244" y="155.5889">构建可纠错的反馈闭环</text><rect fill="#F1F1F1" height="36.2969" rx="12.5" ry="12.5" style="stroke:#181818;stroke-width:1.5;" width="104" x="444" y="76.2969"/><text fill="#000000" font-family="sans-serif" font-size="14" lengthAdjust="spacing" textLength="84" x="454" y="99.292">构建价值反馈</text><path d="M394,150.7422 L404,150.7422 C419,150.7422 419,94.4453 434,94.4453 L444,94.4453 " fill="none" style="stroke:#181818;stroke-width:1.0;"/><rect fill="#F1F1F1" height="36.2969" rx="12.5" ry="12.5" style="stroke:#181818;stroke-width:1.5;" width="104" x="444" y="132.5938"/><text fill="#000000" font-family="sans-serif" font-size="14" lengthAdjust="spacing" textLength="84" x="454" y="155.5889">构建质量反馈</text><rect fill="#F1F1F1" height="36.2969" rx="12.5" ry="12.5" style="stroke:#181818;stroke-width:1.5;" width="132" x="598" y="132.5938"/><text fill="#000000" font-family="sans-serif" font-size="14" lengthAdjust="spacing" textLength="112" x="608" y="155.5889">提前定义验收标准</text><path d="M548,150.7422 L558,150.7422 C573,150.7422 573,150.7422 588,150.7422 L598,150.7422 " fill="none" style="stroke:#181818;stroke-width:1.0;"/><path d="M394,150.7422 L404,150.7422 C419,150.7422 419,150.7422 434,150.7422 L444,150.7422 " fill="none" style="stroke:#181818;stroke-width:1.0;"/><rect fill="#F1F1F1" height="36.2969" rx="12.5" ry="12.5" style="stroke:#181818;stroke-width:1.5;" width="104" x="444" y="188.8906"/><text fill="#000000" font-family="sans-serif" font-size="14" lengthAdjust="spacing" textLength="84" x="454" y="211.8857">构建效能反馈</text><path d="M394,150.7422 L404,150.7422 C419,150.7422 419,207.0391 434,207.0391 L444,207.0391 " fill="none" style="stroke:#181818;stroke-width:1.0;"/><path d="M184,150.7422 L194,150.7422 C209,150.7422 209,150.7422 224,150.7422 L234,150.7422 " fill="none" style="stroke:#181818;stroke-width:1.0;"/><rect fill="#F1F1F1" height="36.2969" rx="12.5" ry="12.5" style="stroke:#181818;stroke-width:1.5;" width="132" x="234" y="245.1875"/><text fill="#000000" font-family="sans-serif" font-size="14" lengthAdjust="spacing" textLength="112" x="244" y="268.1826">缩短反馈循环时间</text><rect fill="#F1F1F1" height="36.2969" rx="12.5" ry="12.5" style="stroke:#181818;stroke-width:1.5;" width="174" x="416" y="245.1875"/><text fill="#000000" font-family="sans-serif" font-size="14" lengthAdjust="spacing" textLength="154" x="426" y="268.1826">及早反馈，及时适度调整</text><path d="M366,263.3359 L376,263.3359 C391,263.3359 391,263.3359 406,263.3359 L416,263.3359 " fill="none" style="stroke:#181818;stroke-width:1.0;"/><path d="M184,150.7422 L194,150.7422 C209,150.7422 209,263.3359 224,263.3359 L234,263.3359 " fill="none" style="stroke:#181818;stroke-width:1.0;"/><path d="M58,235.1875 L68,235.1875 C83,235.1875 83,150.7422 98,150.7422 L108,150.7422 " fill="none" style="stroke:#181818;stroke-width:1.0;"/><rect fill="#F1F1F1" height="36.2969" rx="12.5" ry="12.5" style="stroke:#181818;stroke-width:1.5;" width="76" x="108" y="357.7813"/><text fill="#000000" font-family="sans-serif" font-size="14" lengthAdjust="spacing" textLength="56" x="118" y="380.7764">协作管理</text><rect fill="#F1F1F1" height="36.2969" rx="12.5" ry="12.5" style="stroke:#181818;stroke-width:1.5;" width="76" x="234" y="301.4844"/><text fill="#000000" font-family="sans-serif" font-size="14" lengthAdjust="spacing" textLength="56" x="244" y="324.4795">信息同步</text><path d="M184,375.9297 L194,375.9297 C209,375.9297 209,319.6328 224,319.6328 L234,319.6328 " fill="none" style="stroke:#181818;stroke-width:1.0;"/><rect fill="#F1F1F1" height="36.2969" rx="12.5" ry="12.5" style="stroke:#181818;stroke-width:1.5;" width="76" x="234" y="357.7813"/><text fill="#000000" font-family="sans-serif" font-size="14" lengthAdjust="spacing" textLength="56" x="244" y="380.7764">快速决策</text><path d="M184,375.9297 L194,375.9297 C209,375.9297 209,375.9297 224,375.9297 L234,375.9297 " fill="none" style="stroke:#181818;stroke-width:1.0;"/><rect fill="#F1F1F1" height="36.2969" rx="12.5" ry="12.5" style="stroke:#181818;stroke-width:1.5;" width="76" x="234" y="414.0781"/><text fill="#000000" font-family="sans-serif" font-size="14" lengthAdjust="spacing" textLength="56" x="244" y="437.0732">相互合作</text><path d="M184,375.9297 L194,375.9297 C209,375.9297 209,432.2266 224,432.2266 L234,432.2266 " fill="none" style="stroke:#181818;stroke-width:1.0;"/><path d="M58,235.1875 L68,235.1875 C83,235.1875 83,375.9297 98,375.9297 L108,375.9297 " fill="none" style="stroke:#181818;stroke-width:1.0;"/><!--SRC=[RP5TJnD158RlvrUSIsW2iLK8xXKHqAIsaO1mFzAnsQIT9TlP9jvLWNwGrbqDjOf6w8LycROcDaMt2_oPdPdkbN_1eItQGETktddECoVdp6SODbbQfuaqtaGX45LRLCuHg1C2RbU2ew9irgMJxqU3M9HBSkVOxvxpdCTR7dVUzPgNlBdlTxjyj-vx7_bEKRh7enLVjtdNvNPBkeV1tYUvlprG1xM6VDlw1ux2GtqV6mlqsYT1mHu3327RuQNATLU_Iy5PMUnrn6615_9ZNQ9Qx6rTt7A5G7gdyg0nYFdbcMfLr3f1hNtBmUrTKJiTO7-ySl_Q2N9lk7lK-x4bgksRSLPi_-BBdN7wLtNnkiMTicXy6udvrVSWTy3pFsNZmsXFdt_vxdlk59KApHErj-7kq78AKxOMZq6Mc1dTe12UZjoBt9yEJwnQ5AAOGkGXX2FQp9msCmjhpnVW-daIJJnPZa76iCmD0WazmqpzXSLK_IIAuYo65OioFKqqUBP9Q7JnwKq0IpIhcmPD4yfGT3t-7vXzCFL8Px1AJDK9hCVH8dc9hHHJ5Hj6GgT9JVt-U6eEnJ1DMZYft8IY1KDvpLSQK2kL-Wi0]--></g></svg>