<?xml version="1.0" encoding="UTF-8" standalone="no"?><svg xmlns="http://www.w3.org/2000/svg" xmlns:xlink="http://www.w3.org/1999/xlink" contentStyleType="text/css" height="753px" preserveAspectRatio="none" style="width:639px;height:753px;background:#FFFFFF;" version="1.1" viewBox="0 0 639 753" width="639px" zoomAndPan="magnify"><defs/><g><rect fill="#F1F1F1" height="36.2969" rx="12.5" ry="12.5" style="stroke:#181818;stroke-width:1.5;" width="118" x="10" y="357.7813"/><text fill="#000000" font-family="sans-serif" font-size="14" lengthAdjust="spacing" textLength="98" x="20" y="380.7764">团队的成事哲学</text><rect fill="#F1F1F1" height="36.2969" rx="12.5" ry="12.5" style="stroke:#181818;stroke-width:1.5;" width="76" x="178" y="48.1484"/><text fill="#000000" font-family="sans-serif" font-size="14" lengthAdjust="spacing" textLength="56" x="188" y="71.1436">设定计划</text><rect fill="#F1F1F1" height="36.2969" rx="12.5" ry="12.5" style="stroke:#181818;stroke-width:1.5;" width="118" x="304" y="20"/><text fill="#000000" font-family="sans-serif" font-size="14" lengthAdjust="spacing" textLength="98" x="314" y="42.9951">Sprint backlog</text><path d="M254,66.2969 L264,66.2969 C279,66.2969 279,38.1484 294,38.1484 L304,38.1484 " fill="none" style="stroke:#181818;stroke-width:1.0;"/><rect fill="#F1F1F1" height="36.2969" rx="12.5" ry="12.5" style="stroke:#181818;stroke-width:1.5;" width="184" x="304" y="76.2969"/><text fill="#000000" font-family="sans-serif" font-size="14" lengthAdjust="spacing" textLength="164" x="314" y="99.292">Sprint planning meeting</text><path d="M254,66.2969 L264,66.2969 C279,66.2969 279,94.4453 294,94.4453 L304,94.4453 " fill="none" style="stroke:#181818;stroke-width:1.0;"/><path d="M128,375.9297 L138,375.9297 C153,375.9297 153,66.2969 168,66.2969 L178,66.2969 " fill="none" style="stroke:#181818;stroke-width:1.0;"/><rect fill="#F1F1F1" height="36.2969" rx="12.5" ry="12.5" style="stroke:#181818;stroke-width:1.5;" width="76" x="178" y="132.5938"/><text fill="#000000" font-family="sans-serif" font-size="14" lengthAdjust="spacing" textLength="56" x="188" y="155.5889">排优先级</text><rect fill="#F1F1F1" height="36.2969" rx="12.5" ry="12.5" style="stroke:#181818;stroke-width:1.5;" width="132" x="304" y="132.5938"/><text fill="#000000" font-family="sans-serif" font-size="14" lengthAdjust="spacing" textLength="112" x="314" y="155.5889">Product backlog</text><path d="M254,150.7422 L264,150.7422 C279,150.7422 279,150.7422 294,150.7422 L304,150.7422 " fill="none" style="stroke:#181818;stroke-width:1.0;"/><path d="M128,375.9297 L138,375.9297 C153,375.9297 153,150.7422 168,150.7422 L178,150.7422 " fill="none" style="stroke:#181818;stroke-width:1.0;"/><rect fill="#F1F1F1" height="36.2969" rx="12.5" ry="12.5" style="stroke:#181818;stroke-width:1.5;" width="76" x="178" y="217.0391"/><text fill="#000000" font-family="sans-serif" font-size="14" lengthAdjust="spacing" textLength="56" x="188" y="240.0342">快速反馈</text><rect fill="#F1F1F1" height="36.2969" rx="12.5" ry="12.5" style="stroke:#181818;stroke-width:1.5;" width="60" x="304" y="188.8906"/><text fill="#000000" font-family="sans-serif" font-size="14" lengthAdjust="spacing" textLength="40" x="314" y="211.8857">Sprint</text><path d="M254,235.1875 L264,235.1875 C279,235.1875 279,207.0391 294,207.0391 L304,207.0391 " fill="none" style="stroke:#181818;stroke-width:1.0;"/><rect fill="#F1F1F1" height="36.2969" rx="12.5" ry="12.5" style="stroke:#181818;stroke-width:1.5;" width="323" x="304" y="245.1875"/><text fill="#000000" font-family="sans-serif" font-size="14" lengthAdjust="spacing" textLength="303" x="314" y="268.1826">Potential shippable product increment(PSPI)</text><path d="M254,235.1875 L264,235.1875 C279,235.1875 279,263.3359 294,263.3359 L304,263.3359 " fill="none" style="stroke:#181818;stroke-width:1.0;"/><path d="M128,375.9297 L138,375.9297 C153,375.9297 153,235.1875 168,235.1875 L178,235.1875 " fill="none" style="stroke:#181818;stroke-width:1.0;"/><rect fill="#F1F1F1" height="36.2969" rx="12.5" ry="12.5" style="stroke:#181818;stroke-width:1.5;" width="48" x="178" y="301.4844"/><text fill="#000000" font-family="sans-serif" font-size="14" lengthAdjust="spacing" textLength="28" x="188" y="324.4795">验收</text><rect fill="#F1F1F1" height="36.2969" rx="12.5" ry="12.5" style="stroke:#181818;stroke-width:1.5;" width="113" x="276" y="301.4844"/><text fill="#000000" font-family="sans-serif" font-size="14" lengthAdjust="spacing" textLength="93" x="286" y="324.4795">Sprint Review</text><path d="M226,319.6328 L236,319.6328 C251,319.6328 251,319.6328 266,319.6328 L276,319.6328 " fill="none" style="stroke:#181818;stroke-width:1.0;"/><path d="M128,375.9297 L138,375.9297 C153,375.9297 153,319.6328 168,319.6328 L178,319.6328 " fill="none" style="stroke:#181818;stroke-width:1.0;"/><rect fill="#F1F1F1" height="36.2969" rx="12.5" ry="12.5" style="stroke:#181818;stroke-width:1.5;" width="76" x="178" y="385.9297"/><text fill="#000000" font-family="sans-serif" font-size="14" lengthAdjust="spacing" textLength="56" x="188" y="408.9248">同步信息</text><rect fill="#F1F1F1" height="36.2969" rx="12.5" ry="12.5" style="stroke:#181818;stroke-width:1.5;" width="205" x="304" y="357.7813"/><text fill="#000000" font-family="sans-serif" font-size="14" lengthAdjust="spacing" textLength="185" x="314" y="380.7764">Sprint Refinement meeting</text><path d="M254,404.0781 L264,404.0781 C279,404.0781 279,375.9297 294,375.9297 L304,375.9297 " fill="none" style="stroke:#181818;stroke-width:1.0;"/><rect fill="#F1F1F1" height="36.2969" rx="12.5" ry="12.5" style="stroke:#181818;stroke-width:1.5;" width="114" x="304" y="414.0781"/><text fill="#000000" font-family="sans-serif" font-size="14" lengthAdjust="spacing" textLength="94" x="314" y="437.0732">Daily Standup</text><path d="M254,404.0781 L264,404.0781 C279,404.0781 279,432.2266 294,432.2266 L304,432.2266 " fill="none" style="stroke:#181818;stroke-width:1.0;"/><path d="M128,375.9297 L138,375.9297 C153,375.9297 153,404.0781 168,404.0781 L178,404.0781 " fill="none" style="stroke:#181818;stroke-width:1.0;"/><rect fill="#F1F1F1" height="36.2969" rx="12.5" ry="12.5" style="stroke:#181818;stroke-width:1.5;" width="76" x="178" y="498.5234"/><text fill="#000000" font-family="sans-serif" font-size="14" lengthAdjust="spacing" textLength="56" x="188" y="521.5186">协作效率</text><rect fill="#F1F1F1" height="36.2969" rx="12.5" ry="12.5" style="stroke:#181818;stroke-width:1.5;" width="158" x="304" y="470.375"/><text fill="#000000" font-family="sans-serif" font-size="14" lengthAdjust="spacing" textLength="138" x="314" y="493.3701">Sprint retro meeting</text><path d="M254,516.6719 L264,516.6719 C279,516.6719 279,488.5234 294,488.5234 L304,488.5234 " fill="none" style="stroke:#181818;stroke-width:1.0;"/><rect fill="#F1F1F1" height="36.2969" rx="12.5" ry="12.5" style="stroke:#181818;stroke-width:1.5;" width="174" x="304" y="526.6719"/><text fill="#000000" font-family="sans-serif" font-size="14" lengthAdjust="spacing" textLength="154" x="314" y="549.667">Value Stream Mapping</text><path d="M254,516.6719 L264,516.6719 C279,516.6719 279,544.8203 294,544.8203 L304,544.8203 " fill="none" style="stroke:#181818;stroke-width:1.0;"/><path d="M128,375.9297 L138,375.9297 C153,375.9297 153,516.6719 168,516.6719 L178,516.6719 " fill="none" style="stroke:#181818;stroke-width:1.0;"/><rect fill="#F1F1F1" height="36.2969" rx="12.5" ry="12.5" style="stroke:#181818;stroke-width:1.5;" width="48" x="178" y="639.2656"/><text fill="#000000" font-family="sans-serif" font-size="14" lengthAdjust="spacing" textLength="28" x="188" y="662.2607">执行</text><rect fill="#F1F1F1" height="36.2969" rx="12.5" ry="12.5" style="stroke:#181818;stroke-width:1.5;" width="91" x="276" y="582.9688"/><text fill="#000000" font-family="sans-serif" font-size="14" lengthAdjust="spacing" textLength="71" x="286" y="605.9639">Lead Time</text><path d="M226,657.4141 L236,657.4141 C251,657.4141 251,601.1172 266,601.1172 L276,601.1172 " fill="none" style="stroke:#181818;stroke-width:1.0;"/><rect fill="#F1F1F1" height="36.2969" rx="12.5" ry="12.5" style="stroke:#181818;stroke-width:1.5;" width="96" x="276" y="639.2656"/><text fill="#000000" font-family="sans-serif" font-size="14" lengthAdjust="spacing" textLength="76" x="286" y="662.2607">Circle Time</text><path d="M226,657.4141 L236,657.4141 C251,657.4141 251,657.4141 266,657.4141 L276,657.4141 " fill="none" style="stroke:#181818;stroke-width:1.0;"/><rect fill="#F1F1F1" height="36.2969" rx="12.5" ry="12.5" style="stroke:#181818;stroke-width:1.5;" width="73" x="276" y="695.5625"/><text fill="#000000" font-family="sans-serif" font-size="14" lengthAdjust="spacing" textLength="53" x="286" y="718.5576">Velocity</text><path d="M226,657.4141 L236,657.4141 C251,657.4141 251,713.7109 266,713.7109 L276,713.7109 " fill="none" style="stroke:#181818;stroke-width:1.0;"/><path d="M128,375.9297 L138,375.9297 C153,375.9297 153,657.4141 168,657.4141 L178,657.4141 " fill="none" style="stroke:#181818;stroke-width:1.0;"/><!--SRC=[RPBVQnD14CVVzw-OnwJGOg8jzPwAYOenmT1hyxwvcyR5kzrbRpUIDmN5AwO_g2sKAfG8jg0qWWy-5BN_JEwI_1TksmIlflkoy9tlV6PsPbSYJPKE6VT3AiaS91y_Zm-FXqTlqdXtSFu- -V0ZEJiXOCySZFf_alxHgDzBuhqhwLfsfM9SGvDwBmBHcWt8W7BEU0j2H6tl2ItTtXlyEapUniFpqqnINGdVU3TnjgsBR-DNnydErlWadgcGpHOQkMOqWEWvav8s0mGv8JBkAGnjE5Ttwq_o4_BuQpVT_pdRzIgs6RwSbj_jfcTV1XUzzFNtswmRZ5-HRppnsbEcBEY0godtZPpYjdO6lp-b1_5m-zqiJg5MuXPIWmO6BKaX3Q56fSpCSlDqrEjcl5MaFgon43DQYIdFZkC_jO61y9Zka1MqVs3o3qZTxaolrwhGHXKnmQ6mKBnJlBjGoBc6GuLoADw7Gj5PN7OMbs1zhGINuJp9FQvN8H96UGW-YxHYJQDjVfvKQ9l2gh7B2T61Pn9vfVnqAi13tcPAyCiPaagZzi-mT6_-0TFWehATGAD6ohX1JQ1jXYTyEm77LdyqlqogbBSCRLasSb8Ibgiw3d0J17y1]--></g></svg>