<?xml version="1.0" encoding="UTF-8" standalone="no"?><svg xmlns="http://www.w3.org/2000/svg" xmlns:xlink="http://www.w3.org/1999/xlink" contentStyleType="text/css" height="416px" preserveAspectRatio="none" style="width:798px;height:416px;background:#FFFFFF;" version="1.1" viewBox="0 0 798 416" width="798px" zoomAndPan="magnify"><defs/><g><rect fill="#F1F1F1" height="36.2969" rx="12.5" ry="12.5" style="stroke:#181818;stroke-width:1.5;" width="48" x="10" y="188.8906"/><text fill="#000000" font-family="sans-serif" font-size="14" lengthAdjust="spacing" textLength="28" x="20" y="211.8857">问题</text><rect fill="#F1F1F1" height="36.2969" rx="12.5" ry="12.5" style="stroke:#181818;stroke-width:1.5;" width="174" x="108" y="48.1484"/><text fill="#000000" font-family="sans-serif" font-size="14" lengthAdjust="spacing" textLength="154" x="118" y="71.1436">如何确保“事情能做成”？</text><rect fill="#F1F1F1" height="36.2969" rx="12.5" ry="12.5" style="stroke:#181818;stroke-width:1.5;" width="76" x="332" y="20"/><text fill="#000000" font-family="sans-serif" font-size="14" lengthAdjust="spacing" textLength="56" x="342" y="42.9951">设定计划</text><path d="M282,66.2969 L292,66.2969 C307,66.2969 307,38.1484 322,38.1484 L332,38.1484 " fill="none" style="stroke:#181818;stroke-width:1.0;"/><rect fill="#F1F1F1" height="36.2969" rx="12.5" ry="12.5" style="stroke:#181818;stroke-width:1.5;" width="48" x="332" y="76.2969"/><text fill="#000000" font-family="sans-serif" font-size="14" lengthAdjust="spacing" textLength="28" x="342" y="99.292">验收</text><path d="M282,66.2969 L292,66.2969 C307,66.2969 307,94.4453 322,94.4453 L332,94.4453 " fill="none" style="stroke:#181818;stroke-width:1.0;"/><path d="M58,207.0391 L68,207.0391 C83,207.0391 83,66.2969 98,66.2969 L108,66.2969 " fill="none" style="stroke:#181818;stroke-width:1.0;"/><rect fill="#F1F1F1" height="36.2969" rx="12.5" ry="12.5" style="stroke:#181818;stroke-width:1.5;" width="230" x="108" y="160.7422"/><text fill="#000000" font-family="sans-serif" font-size="14" lengthAdjust="spacing" textLength="210" x="118" y="183.7373">如何确保“做的事情能带来价值”？</text><rect fill="#F1F1F1" height="36.2969" rx="12.5" ry="12.5" style="stroke:#181818;stroke-width:1.5;" width="76" x="388" y="132.5938"/><text fill="#000000" font-family="sans-serif" font-size="14" lengthAdjust="spacing" textLength="56" x="398" y="155.5889">排优先级</text><path d="M338,178.8906 L348,178.8906 C363,178.8906 363,150.7422 378,150.7422 L388,150.7422 " fill="none" style="stroke:#181818;stroke-width:1.0;"/><rect fill="#F1F1F1" height="36.2969" rx="12.5" ry="12.5" style="stroke:#181818;stroke-width:1.5;" width="76" x="388" y="188.8906"/><text fill="#000000" font-family="sans-serif" font-size="14" lengthAdjust="spacing" textLength="56" x="398" y="211.8857">快速反馈</text><path d="M338,178.8906 L348,178.8906 C363,178.8906 363,207.0391 378,207.0391 L388,207.0391 " fill="none" style="stroke:#181818;stroke-width:1.0;"/><path d="M58,207.0391 L68,207.0391 C83,207.0391 83,178.8906 98,178.8906 L108,178.8906 " fill="none" style="stroke:#181818;stroke-width:1.0;"/><rect fill="#F1F1F1" height="36.2969" rx="12.5" ry="12.5" style="stroke:#181818;stroke-width:1.5;" width="202" x="108" y="301.4844"/><text fill="#000000" font-family="sans-serif" font-size="14" lengthAdjust="spacing" textLength="182" x="118" y="324.4795">如何确保“事情做的又快又好”</text><rect fill="#F1F1F1" height="36.2969" rx="12.5" ry="12.5" style="stroke:#181818;stroke-width:1.5;" width="300" x="360" y="245.1875"/><text fill="#000000" font-family="sans-serif" font-size="14" lengthAdjust="spacing" textLength="119" x="370" y="268.1826">如何“花费尽可能少</text><text fill="#000000" font-family="sans-serif" font-size="14" font-weight="bold" lengthAdjust="spacing" textLength="28" x="489" y="268.1826">时间</text><text fill="#000000" font-family="sans-serif" font-size="14" lengthAdjust="spacing" textLength="14" x="517" y="268.1826">和</text><text fill="#000000" font-family="sans-serif" font-size="14" font-weight="bold" lengthAdjust="spacing" textLength="28" x="531" y="268.1826">成本</text><text fill="#000000" font-family="sans-serif" font-size="14" lengthAdjust="spacing" textLength="91" x="559" y="268.1826">，把事情做成”</text><rect fill="#F1F1F1" height="36.2969" rx="12.5" ry="12.5" style="stroke:#181818;stroke-width:1.5;" width="76" x="710" y="245.1875"/><text fill="#000000" font-family="sans-serif" font-size="14" lengthAdjust="spacing" textLength="56" x="720" y="268.1826">排优先级</text><path d="M660,263.3359 L670,263.3359 C685,263.3359 685,263.3359 700,263.3359 L710,263.3359 " fill="none" style="stroke:#181818;stroke-width:1.0;"/><path d="M310,319.6328 L320,319.6328 C335,319.6328 335,263.3359 350,263.3359 L360,263.3359 " fill="none" style="stroke:#181818;stroke-width:1.0;"/><rect fill="#F1F1F1" height="36.2969" rx="12.5" ry="12.5" style="stroke:#181818;stroke-width:1.5;" width="188" x="360" y="329.6328"/><text fill="#000000" font-family="sans-serif" font-size="14" lengthAdjust="spacing" textLength="119" x="370" y="352.6279">如何确保”事情做的</text><text fill="#000000" font-family="sans-serif" font-size="14" font-weight="bold" lengthAdjust="spacing" textLength="28" x="489" y="352.6279">质量</text><text fill="#000000" font-family="sans-serif" font-size="14" lengthAdjust="spacing" textLength="21" x="517" y="352.6279">高“</text><rect fill="#F1F1F1" height="36.2969" rx="12.5" ry="12.5" style="stroke:#181818;stroke-width:1.5;" width="48" x="598" y="301.4844"/><text fill="#000000" font-family="sans-serif" font-size="14" lengthAdjust="spacing" textLength="28" x="608" y="324.4795">执行</text><path d="M548,347.7813 L558,347.7813 C573,347.7813 573,319.6328 588,319.6328 L598,319.6328 " fill="none" style="stroke:#181818;stroke-width:1.0;"/><rect fill="#F1F1F1" height="36.2969" rx="12.5" ry="12.5" style="stroke:#181818;stroke-width:1.5;" width="48" x="598" y="357.7813"/><text fill="#000000" font-family="sans-serif" font-size="14" lengthAdjust="spacing" textLength="28" x="608" y="380.7764">验收</text><path d="M548,347.7813 L558,347.7813 C573,347.7813 573,375.9297 588,375.9297 L598,375.9297 " fill="none" style="stroke:#181818;stroke-width:1.0;"/><path d="M310,319.6328 L320,319.6328 C335,319.6328 335,347.7813 350,347.7813 L360,347.7813 " fill="none" style="stroke:#181818;stroke-width:1.0;"/><path d="M58,207.0391 L68,207.0391 C83,207.0391 83,319.6328 98,319.6328 L108,319.6328 " fill="none" style="stroke:#181818;stroke-width:1.0;"/><!--SRC=[VP7VJXf15CRlvodE9KwY4LgDtIjJjIOKKgBL-r6cP1EODSiiIUzeAUbAgIZHG8Z4q4HirAms8TO_KDx5x2oxLxv21x52qJ0Naymtt_cTB-VC9ZdHUK9bqGJPG1YyakNzA2EG1uEeVxPRUvsQPRUhj-bz-_gRaycwcPRuL77CxTjqzQvvS6_jsLthZx0ghbKJPd50zexppkx5yqX9wbI-zC6NTQTwQD_y5kdc4xopLRIRPP4rEzT70x9edtZf0r7uxjNDKRbxhKJ1b0NT-x0bEmnoxekatStzSXjNuhmb2cVTJESx63kb2w_Km5WKy_9XRZlxfnZVDVDEBlT8xutaaJWwz7y9guC9CNORFxsl1OozaxACCmpSF79h-I7nOSIpLAxnOPKe4YUChuH3aA9wKjKO-2S2au4N4txVii4WI1W4Ne4_e4pDA5FJiF9-3hhVOyYt60b1KZFqTGfHDSbrTStWiduC1KcAm9B1k9gW2hpRe2mu__QV00iifUeQIr36KN0rt3TClnn_hN9OfhfC0gjXD4y_42FEPSMw5bLPJ97TtupFe11XCOF499ioDAT9hlvH0MR4uty1]--></g></svg>