<?xml version="1.0" encoding="UTF-8" standalone="no"?><svg xmlns="http://www.w3.org/2000/svg" xmlns:xlink="http://www.w3.org/1999/xlink" contentStyleType="text/css" height="472px" preserveAspectRatio="none" style="width:742px;height:472px;background:#FFFFFF;" version="1.1" viewBox="0 0 742 472" width="742px" zoomAndPan="magnify"><defs/><g><rect fill="#F1F1F1" height="36.2969" rx="12.5" ry="12.5" style="stroke:#181818;stroke-width:1.5;" width="48" x="10" y="217.0391"/><text fill="#000000" font-family="sans-serif" font-size="14" lengthAdjust="spacing" textLength="28" x="20" y="240.0342">敏捷</text><rect fill="#F1F1F1" height="36.2969" rx="12.5" ry="12.5" style="stroke:#181818;stroke-width:1.5;" width="76" x="108" y="104.4453"/><text fill="#000000" font-family="sans-serif" font-size="14" lengthAdjust="spacing" textLength="56" x="118" y="127.4404">任务管理</text><rect fill="#F1F1F1" height="36.2969" rx="12.5" ry="12.5" style="stroke:#181818;stroke-width:1.5;" width="202" x="234" y="20"/><text fill="#000000" font-family="sans-serif" font-size="14" lengthAdjust="spacing" textLength="182" x="244" y="42.9951">按照价值导向设定任务优先级</text><path d="M184,122.5938 L194,122.5938 C209,122.5938 209,38.1484 224,38.1484 L234,38.1484 " fill="none" style="stroke:#181818;stroke-width:1.0;"/><rect fill="#F1F1F1" height="36.2969" rx="12.5" ry="12.5" style="stroke:#181818;stroke-width:1.5;" width="160" x="234" y="104.4453"/><text fill="#000000" font-family="sans-serif" font-size="14" lengthAdjust="spacing" textLength="140" x="244" y="127.4404">构建可纠错的反馈闭环</text><rect fill="#F1F1F1" height="36.2969" rx="12.5" ry="12.5" style="stroke:#181818;stroke-width:1.5;" width="104" x="444" y="76.2969"/><text fill="#000000" font-family="sans-serif" font-size="14" lengthAdjust="spacing" textLength="84" x="454" y="99.292">构建价值反馈</text><path d="M394,122.5938 L404,122.5938 C419,122.5938 419,94.4453 434,94.4453 L444,94.4453 " fill="none" style="stroke:#181818;stroke-width:1.0;"/><rect fill="#F1F1F1" height="36.2969" rx="12.5" ry="12.5" style="stroke:#181818;stroke-width:1.5;" width="104" x="444" y="132.5938"/><text fill="#000000" font-family="sans-serif" font-size="14" lengthAdjust="spacing" textLength="84" x="454" y="155.5889">构建质量反馈</text><rect fill="#F1F1F1" height="36.2969" rx="12.5" ry="12.5" style="stroke:#181818;stroke-width:1.5;" width="132" x="598" y="132.5938"/><text fill="#000000" font-family="sans-serif" font-size="14" lengthAdjust="spacing" textLength="112" x="608" y="155.5889">提前定义验收标准</text><path d="M548,150.7422 L558,150.7422 C573,150.7422 573,150.7422 588,150.7422 L598,150.7422 " fill="none" style="stroke:#181818;stroke-width:1.0;"/><path d="M394,122.5938 L404,122.5938 C419,122.5938 419,150.7422 434,150.7422 L444,150.7422 " fill="none" style="stroke:#181818;stroke-width:1.0;"/><path d="M184,122.5938 L194,122.5938 C209,122.5938 209,122.5938 224,122.5938 L234,122.5938 " fill="none" style="stroke:#181818;stroke-width:1.0;"/><rect fill="#F1F1F1" height="36.2969" rx="12.5" ry="12.5" style="stroke:#181818;stroke-width:1.5;" width="132" x="234" y="188.8906"/><text fill="#000000" font-family="sans-serif" font-size="14" lengthAdjust="spacing" textLength="112" x="244" y="211.8857">缩短反馈循环时间</text><rect fill="#F1F1F1" height="36.2969" rx="12.5" ry="12.5" style="stroke:#181818;stroke-width:1.5;" width="174" x="416" y="188.8906"/><text fill="#000000" font-family="sans-serif" font-size="14" lengthAdjust="spacing" textLength="154" x="426" y="211.8857">及早反馈，及时适度调整</text><path d="M366,207.0391 L376,207.0391 C391,207.0391 391,207.0391 406,207.0391 L416,207.0391 " fill="none" style="stroke:#181818;stroke-width:1.0;"/><path d="M184,122.5938 L194,122.5938 C209,122.5938 209,207.0391 224,207.0391 L234,207.0391 " fill="none" style="stroke:#181818;stroke-width:1.0;"/><path d="M58,235.1875 L68,235.1875 C83,235.1875 83,122.5938 98,122.5938 L108,122.5938 " fill="none" style="stroke:#181818;stroke-width:1.0;"/><rect fill="#F1F1F1" height="36.2969" rx="12.5" ry="12.5" style="stroke:#181818;stroke-width:1.5;" width="76" x="108" y="329.6328"/><text fill="#000000" font-family="sans-serif" font-size="14" lengthAdjust="spacing" textLength="56" x="118" y="352.6279">协作管理</text><rect fill="#F1F1F1" height="36.2969" rx="12.5" ry="12.5" style="stroke:#181818;stroke-width:1.5;" width="76" x="234" y="245.1875"/><text fill="#000000" font-family="sans-serif" font-size="14" lengthAdjust="spacing" textLength="56" x="244" y="268.1826">信息同步</text><path d="M184,347.7813 L194,347.7813 C209,347.7813 209,263.3359 224,263.3359 L234,263.3359 " fill="none" style="stroke:#181818;stroke-width:1.0;"/><rect fill="#F1F1F1" height="36.2969" rx="12.5" ry="12.5" style="stroke:#181818;stroke-width:1.5;" width="76" x="234" y="301.4844"/><text fill="#000000" font-family="sans-serif" font-size="14" lengthAdjust="spacing" textLength="56" x="244" y="324.4795">快速决策</text><path d="M184,347.7813 L194,347.7813 C209,347.7813 209,319.6328 224,319.6328 L234,319.6328 " fill="none" style="stroke:#181818;stroke-width:1.0;"/><rect fill="#F1F1F1" height="36.2969" rx="12.5" ry="12.5" style="stroke:#181818;stroke-width:1.5;" width="76" x="234" y="357.7813"/><text fill="#000000" font-family="sans-serif" font-size="14" lengthAdjust="spacing" textLength="56" x="244" y="380.7764">依赖管理</text><path d="M184,347.7813 L194,347.7813 C209,347.7813 209,375.9297 224,375.9297 L234,375.9297 " fill="none" style="stroke:#181818;stroke-width:1.0;"/><rect fill="#F1F1F1" height="36.2969" rx="12.5" ry="12.5" style="stroke:#181818;stroke-width:1.5;" width="104" x="234" y="414.0781"/><text fill="#000000" font-family="sans-serif" font-size="14" lengthAdjust="spacing" textLength="84" x="244" y="437.0732">协同并行工作</text><path d="M184,347.7813 L194,347.7813 C209,347.7813 209,432.2266 224,432.2266 L234,432.2266 " fill="none" style="stroke:#181818;stroke-width:1.0;"/><path d="M58,235.1875 L68,235.1875 C83,235.1875 83,347.7813 98,347.7813 L108,347.7813 " fill="none" style="stroke:#181818;stroke-width:1.0;"/><!--SRC=[RP5TJnD158RlvrVC9P10R1M2UqK0DQbj9F9nFz2XsQIT9TlP9jvL1Kh9rgq9K2JoqGj0C6rDh6rer_9dzipiNlaN7Dgg6s7kvftdlE-PSsQod9WyexDaXcoWCIps7L5g8wpE6FQwNTYjodfLbhVxqa0MTb5kNNhTDkHTQBXG_kZNUr0_6k2UUmXREx9p6QuusOHk1vo6x9m5Uv_aqIOufU1Y9wZKv8V6Np0C3-txs8E0t_mI59m7W27abA5OkklgfXXSssAl9SuAK0Z_GxfNyhGsS83UjUf4L5f1fVbV73Yxed8rm7wvTl_Q2lBle7FXVtilzfl3QK79yNv-lZSjxxOgtZQWR8lQUKY6swz1_XIslylQGPZk7Vi_3kwPA6_b03Sjlsf3-rpbe1cgTZRS6rf84yQN4t6SesPMDnYEJ4GVHHzFH4OMBOPZXE7eKno9QfFJskGKNbwQmtVFesZanK8SPmtBNACugMUvgQzQNDMFeXZ94VpQObpFK0s_sg0iDl_oZu2ViPnk6Yn36KUnbSG_OEh9-ApEyI8rLITu9O7cwJgnqbnLh1b9dQKqbVvyV1h52KjP9AMyAKDpXl8rtsYOMUdqRm00]--></g></svg>